<svg width="19" height="24" viewBox="0 0 19 24" fill="none" xmlns="http://www.w3.org/2000/svg">
<path d="M9.624 7.2221C8.748 7.2221 7.392 6.2261 5.964 6.2621C4.08 6.2861 2.352 7.3541 1.38 9.0461C-0.575999 12.4421 0.876 17.4581 2.784 20.2181C3.72 21.5621 4.824 23.0741 6.288 23.0261C7.692 22.9661 8.22 22.1141 9.924 22.1141C11.616 22.1141 12.096 23.0261 13.584 22.9901C15.096 22.9661 16.056 21.6221 16.98 20.2661C18.048 18.7061 18.492 17.1941 18.516 17.1101C18.48 17.0981 15.576 15.9821 15.54 12.6221C15.516 9.8141 17.832 8.4701 17.94 8.4101C16.62 6.4781 14.592 6.2621 13.884 6.2141C12.036 6.0701 10.488 7.2221 9.624 7.2221ZM12.744 4.3901C13.524 3.4541 14.04 2.1461 13.896 0.850098C12.78 0.898098 11.436 1.5941 10.632 2.5301C9.912 3.3581 9.288 4.6901 9.456 5.9621C10.692 6.0581 11.964 5.3261 12.744 4.3901Z" fill="black"/>
</svg>
