<svg width="19" height="22" viewBox="0 0 19 22" fill="none" xmlns="http://www.w3.org/2000/svg">
<path d="M0.609002 0.813965L10.792 11L0.610002 21.186C0.428942 21.1098 0.27443 20.9819 0.165892 20.8182C0.0573553 20.6545 -0.000360769 20.4624 1.69682e-06 20.266V1.73396C7.83459e-05 1.53779 0.0578565 1.34596 0.166143 1.18238C0.274429 1.01879 0.42844 0.890671 0.609002 0.813965ZM11.499 11.707L13.801 14.009L2.864 20.342L11.499 11.707ZM14.698 8.50896L17.505 10.135C17.6565 10.2229 17.7823 10.349 17.8698 10.5009C17.9572 10.6527 18.0032 10.8248 18.0032 11C18.0032 11.1752 17.9572 11.3473 17.8698 11.4991C17.7823 11.6509 17.6565 11.7771 17.505 11.865L14.697 13.491L12.206 11L14.698 8.50896ZM2.864 1.65796L13.802 7.98996L11.499 10.293L2.864 1.65796Z" fill="black"/>
</svg>
